<mxfile host="app.diagrams.net" agent="Mozilla/5.0 (Windows NT 10.0; Win64; x64) AppleWebKit/537.36 (KHTML, like Gecko) Chrome/136.0.0.0 Safari/537.36" version="27.0.6">
  <diagram name="Página-1" id="qQChMc6CsR9quMTi2kan">
    <mxGraphModel dx="2505" dy="874" grid="1" gridSize="10" guides="1" tooltips="1" connect="1" arrows="1" fold="1" page="1" pageScale="1" pageWidth="827" pageHeight="1169" math="0" shadow="0">
      <root>
        <mxCell id="0" />
        <mxCell id="1" parent="0" />
        <mxCell id="JfT9hTI9RyHtd1UQTJpB-1" style="edgeStyle=orthogonalEdgeStyle;rounded=0;orthogonalLoop=1;jettySize=auto;html=1;exitX=0.5;exitY=0.5;exitDx=0;exitDy=0;exitPerimeter=0;entryX=0;entryY=0.5;entryDx=0;entryDy=0;endArrow=none;startFill=0;" parent="1" source="SMolukqlQFWp5ZvPOzQk-1" target="SMolukqlQFWp5ZvPOzQk-10" edge="1">
          <mxGeometry relative="1" as="geometry" />
        </mxCell>
        <mxCell id="2jT3qYnNEIoOFRAtBTXi-2" style="edgeStyle=orthogonalEdgeStyle;rounded=0;orthogonalLoop=1;jettySize=auto;html=1;exitX=0.5;exitY=0.5;exitDx=0;exitDy=0;exitPerimeter=0;entryX=0;entryY=0.5;entryDx=0;entryDy=0;endArrow=none;startFill=0;" parent="1" source="SMolukqlQFWp5ZvPOzQk-1" target="SMolukqlQFWp5ZvPOzQk-8" edge="1">
          <mxGeometry relative="1" as="geometry" />
        </mxCell>
        <mxCell id="SMolukqlQFWp5ZvPOzQk-1" value="Visitante" style="shape=umlActor;verticalLabelPosition=bottom;verticalAlign=top;html=1;outlineConnect=0;" parent="1" vertex="1">
          <mxGeometry x="-630" y="40" width="30" height="60" as="geometry" />
        </mxCell>
        <mxCell id="2jT3qYnNEIoOFRAtBTXi-34" style="edgeStyle=orthogonalEdgeStyle;rounded=0;orthogonalLoop=1;jettySize=auto;html=1;exitX=0.5;exitY=0;exitDx=0;exitDy=0;exitPerimeter=0;endArrow=block;endFill=0;" parent="1" source="SMolukqlQFWp5ZvPOzQk-4" edge="1">
          <mxGeometry relative="1" as="geometry">
            <mxPoint x="-610" y="450" as="targetPoint" />
          </mxGeometry>
        </mxCell>
        <mxCell id="trck6_Iytx7SmgG77mV8-2" style="edgeStyle=orthogonalEdgeStyle;rounded=0;orthogonalLoop=1;jettySize=auto;html=1;exitX=0.75;exitY=0.1;exitDx=0;exitDy=0;exitPerimeter=0;entryX=0;entryY=0.5;entryDx=0;entryDy=0;endArrow=none;startFill=0;" edge="1" parent="1" source="SMolukqlQFWp5ZvPOzQk-4" target="trck6_Iytx7SmgG77mV8-1">
          <mxGeometry relative="1" as="geometry" />
        </mxCell>
        <mxCell id="trck6_Iytx7SmgG77mV8-4" style="edgeStyle=orthogonalEdgeStyle;rounded=0;orthogonalLoop=1;jettySize=auto;html=1;exitX=0.5;exitY=0.5;exitDx=0;exitDy=0;exitPerimeter=0;entryX=0;entryY=0.5;entryDx=0;entryDy=0;endArrow=none;startFill=0;" edge="1" parent="1" source="SMolukqlQFWp5ZvPOzQk-4" target="trck6_Iytx7SmgG77mV8-3">
          <mxGeometry relative="1" as="geometry" />
        </mxCell>
        <mxCell id="trck6_Iytx7SmgG77mV8-6" style="edgeStyle=orthogonalEdgeStyle;rounded=0;orthogonalLoop=1;jettySize=auto;html=1;exitX=0.5;exitY=0.5;exitDx=0;exitDy=0;exitPerimeter=0;entryX=0.5;entryY=0;entryDx=0;entryDy=0;endArrow=none;startFill=0;" edge="1" parent="1" source="SMolukqlQFWp5ZvPOzQk-4" target="trck6_Iytx7SmgG77mV8-5">
          <mxGeometry relative="1" as="geometry">
            <Array as="points">
              <mxPoint x="-175" y="540.25" />
              <mxPoint x="-175" y="580.25" />
            </Array>
          </mxGeometry>
        </mxCell>
        <mxCell id="trck6_Iytx7SmgG77mV8-10" style="edgeStyle=orthogonalEdgeStyle;rounded=0;orthogonalLoop=1;jettySize=auto;html=1;exitX=0.5;exitY=0.5;exitDx=0;exitDy=0;exitPerimeter=0;endArrow=none;startFill=0;" edge="1" parent="1" source="SMolukqlQFWp5ZvPOzQk-4" target="trck6_Iytx7SmgG77mV8-7">
          <mxGeometry relative="1" as="geometry">
            <Array as="points">
              <mxPoint x="-195" y="540.25" />
              <mxPoint x="-195" y="590.25" />
              <mxPoint x="-186" y="590.25" />
            </Array>
          </mxGeometry>
        </mxCell>
        <mxCell id="trck6_Iytx7SmgG77mV8-14" style="edgeStyle=orthogonalEdgeStyle;rounded=0;orthogonalLoop=1;jettySize=auto;html=1;exitX=0.5;exitY=0.5;exitDx=0;exitDy=0;exitPerimeter=0;entryX=1;entryY=0.5;entryDx=0;entryDy=0;endArrow=none;startFill=0;" edge="1" parent="1" source="SMolukqlQFWp5ZvPOzQk-4" target="trck6_Iytx7SmgG77mV8-13">
          <mxGeometry relative="1" as="geometry">
            <Array as="points">
              <mxPoint x="-295" y="540.25" />
              <mxPoint x="-295" y="530.25" />
            </Array>
          </mxGeometry>
        </mxCell>
        <mxCell id="trck6_Iytx7SmgG77mV8-15" style="edgeStyle=orthogonalEdgeStyle;rounded=0;orthogonalLoop=1;jettySize=auto;html=1;exitX=0.5;exitY=0.5;exitDx=0;exitDy=0;exitPerimeter=0;entryX=1;entryY=0.5;entryDx=0;entryDy=0;endArrow=none;startFill=0;" edge="1" parent="1" source="SMolukqlQFWp5ZvPOzQk-4" target="trck6_Iytx7SmgG77mV8-12">
          <mxGeometry relative="1" as="geometry">
            <Array as="points">
              <mxPoint x="-275" y="540.25" />
              <mxPoint x="-275" y="600.25" />
            </Array>
          </mxGeometry>
        </mxCell>
        <mxCell id="trck6_Iytx7SmgG77mV8-16" style="edgeStyle=orthogonalEdgeStyle;rounded=0;orthogonalLoop=1;jettySize=auto;html=1;exitX=0.5;exitY=0.5;exitDx=0;exitDy=0;exitPerimeter=0;entryX=0.5;entryY=0;entryDx=0;entryDy=0;endArrow=none;startFill=0;" edge="1" parent="1" source="SMolukqlQFWp5ZvPOzQk-4" target="trck6_Iytx7SmgG77mV8-11">
          <mxGeometry relative="1" as="geometry">
            <Array as="points">
              <mxPoint x="-265" y="540.25" />
              <mxPoint x="-265" y="620.25" />
              <mxPoint x="-290" y="620.25" />
            </Array>
          </mxGeometry>
        </mxCell>
        <mxCell id="SMolukqlQFWp5ZvPOzQk-4" value="AS" style="shape=umlActor;verticalLabelPosition=bottom;verticalAlign=top;html=1;outlineConnect=0;" parent="1" vertex="1">
          <mxGeometry x="-245" y="510.25" width="30" height="60" as="geometry" />
        </mxCell>
        <mxCell id="SMolukqlQFWp5ZvPOzQk-8" value="Acessar&lt;div&gt;página inicial&lt;/div&gt;" style="ellipse;whiteSpace=wrap;html=1;" parent="1" vertex="1">
          <mxGeometry x="-555" y="52.5" width="90" height="35" as="geometry" />
        </mxCell>
        <mxCell id="SMolukqlQFWp5ZvPOzQk-10" value="Acessar páginas públicas" style="ellipse;whiteSpace=wrap;html=1;" parent="1" vertex="1">
          <mxGeometry x="-560" y="100" width="100" height="40" as="geometry" />
        </mxCell>
        <mxCell id="2jT3qYnNEIoOFRAtBTXi-32" style="edgeStyle=orthogonalEdgeStyle;rounded=0;orthogonalLoop=1;jettySize=auto;html=1;endArrow=block;endFill=0;" parent="1" source="SMolukqlQFWp5ZvPOzQk-11" edge="1">
          <mxGeometry relative="1" as="geometry">
            <mxPoint x="-625" y="450" as="targetPoint" />
          </mxGeometry>
        </mxCell>
        <mxCell id="2jT3qYnNEIoOFRAtBTXi-48" style="edgeStyle=orthogonalEdgeStyle;rounded=0;orthogonalLoop=1;jettySize=auto;html=1;exitX=0.75;exitY=0.1;exitDx=0;exitDy=0;exitPerimeter=0;entryX=0;entryY=0.5;entryDx=0;entryDy=0;endArrow=none;startFill=0;" parent="1" source="SMolukqlQFWp5ZvPOzQk-11" target="2jT3qYnNEIoOFRAtBTXi-42" edge="1">
          <mxGeometry relative="1" as="geometry">
            <Array as="points">
              <mxPoint x="-590" y="536" />
              <mxPoint x="-590" y="520" />
            </Array>
          </mxGeometry>
        </mxCell>
        <mxCell id="2jT3qYnNEIoOFRAtBTXi-49" style="edgeStyle=orthogonalEdgeStyle;rounded=0;orthogonalLoop=1;jettySize=auto;html=1;exitX=0.25;exitY=0.1;exitDx=0;exitDy=0;exitPerimeter=0;entryX=1;entryY=0.5;entryDx=0;entryDy=0;endArrow=none;startFill=0;" parent="1" source="SMolukqlQFWp5ZvPOzQk-11" target="2jT3qYnNEIoOFRAtBTXi-35" edge="1">
          <mxGeometry relative="1" as="geometry" />
        </mxCell>
        <mxCell id="2jT3qYnNEIoOFRAtBTXi-50" style="edgeStyle=orthogonalEdgeStyle;rounded=0;orthogonalLoop=1;jettySize=auto;html=1;exitX=0.5;exitY=0.5;exitDx=0;exitDy=0;exitPerimeter=0;endArrow=none;startFill=0;" parent="1" source="SMolukqlQFWp5ZvPOzQk-11" target="2jT3qYnNEIoOFRAtBTXi-36" edge="1">
          <mxGeometry relative="1" as="geometry">
            <Array as="points">
              <mxPoint x="-680" y="560" />
              <mxPoint x="-680" y="580" />
            </Array>
          </mxGeometry>
        </mxCell>
        <mxCell id="2jT3qYnNEIoOFRAtBTXi-51" style="edgeStyle=orthogonalEdgeStyle;rounded=0;orthogonalLoop=1;jettySize=auto;html=1;exitX=0.5;exitY=0.5;exitDx=0;exitDy=0;exitPerimeter=0;entryX=0;entryY=0.5;entryDx=0;entryDy=0;endArrow=none;startFill=0;" parent="1" source="SMolukqlQFWp5ZvPOzQk-11" target="2jT3qYnNEIoOFRAtBTXi-40" edge="1">
          <mxGeometry relative="1" as="geometry">
            <Array as="points">
              <mxPoint x="-570" y="560" />
              <mxPoint x="-570" y="580" />
            </Array>
          </mxGeometry>
        </mxCell>
        <mxCell id="2jT3qYnNEIoOFRAtBTXi-52" style="edgeStyle=orthogonalEdgeStyle;rounded=0;orthogonalLoop=1;jettySize=auto;html=1;exitX=0.5;exitY=0.5;exitDx=0;exitDy=0;exitPerimeter=0;entryX=0.5;entryY=0;entryDx=0;entryDy=0;endArrow=none;startFill=0;" parent="1" source="SMolukqlQFWp5ZvPOzQk-11" target="2jT3qYnNEIoOFRAtBTXi-41" edge="1">
          <mxGeometry relative="1" as="geometry">
            <Array as="points">
              <mxPoint x="-580" y="560" />
              <mxPoint x="-580" y="610" />
              <mxPoint x="-547" y="610" />
            </Array>
          </mxGeometry>
        </mxCell>
        <mxCell id="SMolukqlQFWp5ZvPOzQk-11" value="Aluno/Bolsista" style="shape=umlActor;verticalLabelPosition=bottom;verticalAlign=top;html=1;outlineConnect=0;" parent="1" vertex="1">
          <mxGeometry x="-640" y="530" width="30" height="60" as="geometry" />
        </mxCell>
        <mxCell id="2jT3qYnNEIoOFRAtBTXi-9" style="edgeStyle=orthogonalEdgeStyle;rounded=0;orthogonalLoop=1;jettySize=auto;html=1;endArrow=block;endFill=0;" parent="1" source="2jT3qYnNEIoOFRAtBTXi-4" edge="1">
          <mxGeometry relative="1" as="geometry">
            <mxPoint x="-615" y="120" as="targetPoint" />
          </mxGeometry>
        </mxCell>
        <mxCell id="2jT3qYnNEIoOFRAtBTXi-10" style="edgeStyle=orthogonalEdgeStyle;rounded=0;orthogonalLoop=1;jettySize=auto;html=1;exitX=0.5;exitY=0.5;exitDx=0;exitDy=0;exitPerimeter=0;entryX=0;entryY=0.5;entryDx=0;entryDy=0;endArrow=none;startFill=0;" parent="1" source="2jT3qYnNEIoOFRAtBTXi-4" target="2jT3qYnNEIoOFRAtBTXi-7" edge="1">
          <mxGeometry relative="1" as="geometry" />
        </mxCell>
        <mxCell id="2jT3qYnNEIoOFRAtBTXi-4" value="Usuário&amp;nbsp;&lt;div&gt;Cadastrado&lt;/div&gt;" style="shape=umlActor;verticalLabelPosition=bottom;verticalAlign=top;html=1;outlineConnect=0;" parent="1" vertex="1">
          <mxGeometry x="-630" y="195" width="30" height="60" as="geometry" />
        </mxCell>
        <mxCell id="2jT3qYnNEIoOFRAtBTXi-16" style="edgeStyle=orthogonalEdgeStyle;rounded=0;orthogonalLoop=1;jettySize=auto;html=1;exitX=1;exitY=0.5;exitDx=0;exitDy=0;entryX=0;entryY=0.5;entryDx=0;entryDy=0;endArrow=open;endFill=0;dashed=1;" parent="1" source="2jT3qYnNEIoOFRAtBTXi-7" target="2jT3qYnNEIoOFRAtBTXi-13" edge="1">
          <mxGeometry relative="1" as="geometry" />
        </mxCell>
        <mxCell id="2jT3qYnNEIoOFRAtBTXi-18" value="&amp;lt;&amp;lt;include&amp;gt;&amp;gt;" style="edgeLabel;html=1;align=center;verticalAlign=middle;resizable=0;points=[];" parent="2jT3qYnNEIoOFRAtBTXi-16" vertex="1" connectable="0">
          <mxGeometry x="-0.0467" y="2" relative="1" as="geometry">
            <mxPoint as="offset" />
          </mxGeometry>
        </mxCell>
        <mxCell id="2jT3qYnNEIoOFRAtBTXi-7" value="Entrar no sistema" style="ellipse;whiteSpace=wrap;html=1;" parent="1" vertex="1">
          <mxGeometry x="-560" y="207.5" width="70" height="35" as="geometry" />
        </mxCell>
        <mxCell id="2jT3qYnNEIoOFRAtBTXi-19" style="edgeStyle=orthogonalEdgeStyle;rounded=0;orthogonalLoop=1;jettySize=auto;html=1;entryX=0.5;entryY=1;entryDx=0;entryDy=0;endArrow=none;startFill=0;" parent="1" source="2jT3qYnNEIoOFRAtBTXi-12" target="2jT3qYnNEIoOFRAtBTXi-13" edge="1">
          <mxGeometry relative="1" as="geometry" />
        </mxCell>
        <mxCell id="2jT3qYnNEIoOFRAtBTXi-12" value="SUAP" style="shape=umlActor;verticalLabelPosition=bottom;verticalAlign=top;html=1;outlineConnect=0;" parent="1" vertex="1">
          <mxGeometry x="-380" y="245" width="30" height="60" as="geometry" />
        </mxCell>
        <mxCell id="2jT3qYnNEIoOFRAtBTXi-13" value="Login" style="ellipse;whiteSpace=wrap;html=1;" parent="1" vertex="1">
          <mxGeometry x="-385" y="212.5" width="40" height="25" as="geometry" />
        </mxCell>
        <mxCell id="2jT3qYnNEIoOFRAtBTXi-20" value="Acessar&lt;div&gt;perfil&lt;/div&gt;" style="ellipse;whiteSpace=wrap;html=1;" parent="1" vertex="1">
          <mxGeometry x="-540" y="382.5" width="65" height="35" as="geometry" />
        </mxCell>
        <mxCell id="2jT3qYnNEIoOFRAtBTXi-29" style="edgeStyle=orthogonalEdgeStyle;rounded=0;orthogonalLoop=1;jettySize=auto;html=1;exitX=0.5;exitY=0.5;exitDx=0;exitDy=0;exitPerimeter=0;entryX=0;entryY=0.5;entryDx=0;entryDy=0;endArrow=none;startFill=0;" parent="1" source="2jT3qYnNEIoOFRAtBTXi-22" target="2jT3qYnNEIoOFRAtBTXi-20" edge="1">
          <mxGeometry relative="1" as="geometry" />
        </mxCell>
        <mxCell id="2jT3qYnNEIoOFRAtBTXi-30" style="edgeStyle=orthogonalEdgeStyle;rounded=0;orthogonalLoop=1;jettySize=auto;html=1;exitX=0.5;exitY=0.5;exitDx=0;exitDy=0;exitPerimeter=0;entryX=0;entryY=0.5;entryDx=0;entryDy=0;endArrow=none;startFill=0;" parent="1" source="2jT3qYnNEIoOFRAtBTXi-22" target="2jT3qYnNEIoOFRAtBTXi-27" edge="1">
          <mxGeometry relative="1" as="geometry">
            <Array as="points">
              <mxPoint x="-560" y="400" />
              <mxPoint x="-560" y="450" />
              <mxPoint x="-540" y="450" />
            </Array>
          </mxGeometry>
        </mxCell>
        <mxCell id="2jT3qYnNEIoOFRAtBTXi-22" value="Usuário Logado" style="shape=umlActor;verticalLabelPosition=bottom;verticalAlign=top;html=1;outlineConnect=0;" parent="1" vertex="1">
          <mxGeometry x="-630" y="370" width="30" height="60" as="geometry" />
        </mxCell>
        <mxCell id="2jT3qYnNEIoOFRAtBTXi-27" value="Sair do sistema" style="ellipse;whiteSpace=wrap;html=1;" parent="1" vertex="1">
          <mxGeometry x="-540" y="430" width="65" height="35" as="geometry" />
        </mxCell>
        <mxCell id="2jT3qYnNEIoOFRAtBTXi-28" style="edgeStyle=orthogonalEdgeStyle;rounded=0;orthogonalLoop=1;jettySize=auto;html=1;exitX=0.5;exitY=0;exitDx=0;exitDy=0;exitPerimeter=0;entryX=0.51;entryY=1.583;entryDx=0;entryDy=0;entryPerimeter=0;endArrow=block;endFill=0;" parent="1" source="2jT3qYnNEIoOFRAtBTXi-22" target="2jT3qYnNEIoOFRAtBTXi-4" edge="1">
          <mxGeometry relative="1" as="geometry" />
        </mxCell>
        <mxCell id="2jT3qYnNEIoOFRAtBTXi-35" value="Consultar notificações" style="ellipse;whiteSpace=wrap;html=1;" parent="1" vertex="1">
          <mxGeometry x="-745" y="500" width="75" height="40" as="geometry" />
        </mxCell>
        <mxCell id="2jT3qYnNEIoOFRAtBTXi-36" value="Solicitar auxílio" style="ellipse;whiteSpace=wrap;html=1;" parent="1" vertex="1">
          <mxGeometry x="-780" y="560" width="75" height="40" as="geometry" />
        </mxCell>
        <mxCell id="2jT3qYnNEIoOFRAtBTXi-37" value="Consultar status dos auxílios" style="ellipse;whiteSpace=wrap;html=1;" parent="1" vertex="1">
          <mxGeometry x="-745" y="610" width="75" height="50" as="geometry" />
        </mxCell>
        <mxCell id="2jT3qYnNEIoOFRAtBTXi-54" style="edgeStyle=orthogonalEdgeStyle;rounded=0;orthogonalLoop=1;jettySize=auto;html=1;exitX=0.5;exitY=0;exitDx=0;exitDy=0;endArrow=none;startFill=0;" parent="1" source="2jT3qYnNEIoOFRAtBTXi-39" edge="1">
          <mxGeometry relative="1" as="geometry">
            <mxPoint x="-624.9444444444446" y="610.0000000000002" as="targetPoint" />
          </mxGeometry>
        </mxCell>
        <mxCell id="2jT3qYnNEIoOFRAtBTXi-39" value="Abrir chamado" style="ellipse;whiteSpace=wrap;html=1;" parent="1" vertex="1">
          <mxGeometry x="-652.5" y="640" width="55" height="41" as="geometry" />
        </mxCell>
        <mxCell id="2jT3qYnNEIoOFRAtBTXi-40" value="Fazer perguntas" style="ellipse;whiteSpace=wrap;html=1;" parent="1" vertex="1">
          <mxGeometry x="-557.5" y="560" width="65" height="40" as="geometry" />
        </mxCell>
        <mxCell id="2jT3qYnNEIoOFRAtBTXi-41" value="Consultar&lt;div&gt;chamados&lt;/div&gt;" style="ellipse;whiteSpace=wrap;html=1;" parent="1" vertex="1">
          <mxGeometry x="-580" y="610" width="65" height="41" as="geometry" />
        </mxCell>
        <mxCell id="2jT3qYnNEIoOFRAtBTXi-42" value="Consultar&lt;div&gt;perguntas&lt;/div&gt;" style="ellipse;whiteSpace=wrap;html=1;" parent="1" vertex="1">
          <mxGeometry x="-580" y="500" width="65" height="40" as="geometry" />
        </mxCell>
        <mxCell id="2jT3qYnNEIoOFRAtBTXi-53" style="edgeStyle=orthogonalEdgeStyle;rounded=0;orthogonalLoop=1;jettySize=auto;html=1;exitX=0.5;exitY=0.5;exitDx=0;exitDy=0;exitPerimeter=0;entryX=1;entryY=0;entryDx=0;entryDy=0;endArrow=none;startFill=0;" parent="1" source="SMolukqlQFWp5ZvPOzQk-11" target="2jT3qYnNEIoOFRAtBTXi-37" edge="1">
          <mxGeometry relative="1" as="geometry">
            <Array as="points">
              <mxPoint x="-670" y="560" />
              <mxPoint x="-670" y="617" />
            </Array>
          </mxGeometry>
        </mxCell>
        <mxCell id="trck6_Iytx7SmgG77mV8-1" value="Acessar dashboard" style="ellipse;whiteSpace=wrap;html=1;" vertex="1" parent="1">
          <mxGeometry x="-195" y="470.25" width="65" height="40" as="geometry" />
        </mxCell>
        <mxCell id="trck6_Iytx7SmgG77mV8-3" value="Consultar status dos programas" style="ellipse;whiteSpace=wrap;html=1;" vertex="1" parent="1">
          <mxGeometry x="-155" y="520.25" width="97.5" height="40" as="geometry" />
        </mxCell>
        <mxCell id="trck6_Iytx7SmgG77mV8-5" value="Acessar os beneficiarios dos programas" style="ellipse;whiteSpace=wrap;html=1;" vertex="1" parent="1">
          <mxGeometry x="-165" y="585.75" width="97.5" height="50" as="geometry" />
        </mxCell>
        <mxCell id="trck6_Iytx7SmgG77mV8-7" value="Encerrar o befenício de um aluno" style="ellipse;whiteSpace=wrap;html=1;" vertex="1" parent="1">
          <mxGeometry x="-235" y="635.75" width="97.5" height="50" as="geometry" />
        </mxCell>
        <mxCell id="trck6_Iytx7SmgG77mV8-11" value="Consultar requisições de auxílios" style="ellipse;whiteSpace=wrap;html=1;" vertex="1" parent="1">
          <mxGeometry x="-335" y="640.25" width="90" height="49.5" as="geometry" />
        </mxCell>
        <mxCell id="trck6_Iytx7SmgG77mV8-12" value="Criar fomulários de requisição de auxílios" style="ellipse;whiteSpace=wrap;html=1;" vertex="1" parent="1">
          <mxGeometry x="-390" y="570.25" width="100" height="60" as="geometry" />
        </mxCell>
        <mxCell id="trck6_Iytx7SmgG77mV8-13" value="Emitir Relatórios" style="ellipse;whiteSpace=wrap;html=1;" vertex="1" parent="1">
          <mxGeometry x="-375" y="510.25" width="70" height="40" as="geometry" />
        </mxCell>
      </root>
    </mxGraphModel>
  </diagram>
</mxfile>
